<svg width="179" height="204" viewBox="0 0 179 204" fill="none" xmlns="http://www.w3.org/2000/svg">
<path d="M15.9543 177.248V194H12.5943V186.872H5.41834V194H2.05834V177.248H5.41834V184.136H12.5943V177.248H15.9543ZM25.1655 194.216C23.8855 194.216 22.7335 193.936 21.7095 193.376C20.6855 192.8 19.8775 191.992 19.2855 190.952C18.7095 189.912 18.4215 188.712 18.4215 187.352C18.4215 185.992 18.7175 184.792 19.3095 183.752C19.9175 182.712 20.7415 181.912 21.7815 181.352C22.8215 180.776 23.9815 180.488 25.2615 180.488C26.5415 180.488 27.7015 180.776 28.7415 181.352C29.7815 181.912 30.5975 182.712 31.1895 183.752C31.7975 184.792 32.1015 185.992 32.1015 187.352C32.1015 188.712 31.7895 189.912 31.1655 190.952C30.5575 191.992 29.7255 192.8 28.6695 193.376C27.6295 193.936 26.4615 194.216 25.1655 194.216ZM25.1655 191.288C25.7735 191.288 26.3415 191.144 26.8695 190.856C27.4135 190.552 27.8455 190.104 28.1655 189.512C28.4855 188.92 28.6455 188.2 28.6455 187.352C28.6455 186.088 28.3095 185.12 27.6375 184.448C26.9815 183.76 26.1735 183.416 25.2135 183.416C24.2535 183.416 23.4455 183.76 22.7895 184.448C22.1495 185.12 21.8295 186.088 21.8295 187.352C21.8295 188.616 22.1415 189.592 22.7655 190.28C23.4055 190.952 24.2055 191.288 25.1655 191.288ZM38.4782 183.464V189.896C38.4782 190.344 38.5822 190.672 38.7902 190.88C39.0142 191.072 39.3822 191.168 39.8942 191.168H41.4542V194H39.3422C36.5102 194 35.0942 192.624 35.0942 189.872V183.464H33.5102V180.704H35.0942V177.416H38.4782V180.704H41.4542V183.464H38.4782ZM56.2308 187.064C56.2308 187.544 56.1988 187.976 56.1348 188.36H46.4148C46.4948 189.32 46.8308 190.072 47.4228 190.616C48.0148 191.16 48.7428 191.432 49.6068 191.432C50.8548 191.432 51.7428 190.896 52.2708 189.824H55.8948C55.5108 191.104 54.7748 192.16 53.6868 192.992C52.5988 193.808 51.2628 194.216 49.6788 194.216C48.3988 194.216 47.2468 193.936 46.2228 193.376C45.2148 192.8 44.4228 191.992 43.8468 190.952C43.2868 189.912 43.0068 188.712 43.0068 187.352C43.0068 185.976 43.2868 184.768 43.8468 183.728C44.4068 182.688 45.1908 181.888 46.1988 181.328C47.2068 180.768 48.3668 180.488 49.6788 180.488C50.9428 180.488 52.0708 180.76 53.0628 181.304C54.0708 181.848 54.8468 182.624 55.3908 183.632C55.9508 184.624 56.2308 185.768 56.2308 187.064ZM52.7508 186.104C52.7348 185.24 52.4228 184.552 51.8148 184.04C51.2068 183.512 50.4628 183.248 49.5828 183.248C48.7508 183.248 48.0468 183.504 47.4708 184.016C46.9108 184.512 46.5668 185.208 46.4388 186.104H52.7508ZM62.0433 176.24V194H58.6833V176.24H62.0433ZM74.363 171.272L67.883 198.344H64.595L71.075 171.272H74.363ZM82.8909 177.248C84.6509 177.248 86.1949 177.592 87.5229 178.28C88.8669 178.968 89.8989 179.952 90.6189 181.232C91.3549 182.496 91.7229 183.968 91.7229 185.648C91.7229 187.328 91.3549 188.8 90.6189 190.064C89.8989 191.312 88.8669 192.28 87.5229 192.968C86.1949 193.656 84.6509 194 82.8909 194H77.0349V177.248H82.8909ZM82.7709 191.144C84.5309 191.144 85.8909 190.664 86.8509 189.704C87.8109 188.744 88.2909 187.392 88.2909 185.648C88.2909 183.904 87.8109 182.544 86.8509 181.568C85.8909 180.576 84.5309 180.08 82.7709 180.08H80.3949V191.144H82.7709ZM93.374 187.304C93.374 185.96 93.638 184.768 94.166 183.728C94.71 182.688 95.438 181.888 96.35 181.328C97.278 180.768 98.31 180.488 99.446 180.488C100.438 180.488 101.302 180.688 102.038 181.088C102.79 181.488 103.39 181.992 103.838 182.6V180.704H107.222V194H103.838V192.056C103.406 192.68 102.806 193.2 102.038 193.616C101.286 194.016 100.414 194.216 99.422 194.216C98.302 194.216 97.278 193.928 96.35 193.352C95.438 192.776 94.71 191.968 94.166 190.928C93.638 189.872 93.374 188.664 93.374 187.304ZM103.838 187.352C103.838 186.536 103.678 185.84 103.358 185.264C103.038 184.672 102.606 184.224 102.062 183.92C101.518 183.6 100.934 183.44 100.31 183.44C99.686 183.44 99.11 183.592 98.582 183.896C98.054 184.2 97.622 184.648 97.286 185.24C96.966 185.816 96.806 186.504 96.806 187.304C96.806 188.104 96.966 188.808 97.286 189.416C97.622 190.008 98.054 190.464 98.582 190.784C99.126 191.104 99.702 191.264 100.31 191.264C100.934 191.264 101.518 191.112 102.062 190.808C102.606 190.488 103.038 190.04 103.358 189.464C103.678 188.872 103.838 188.168 103.838 187.352ZM123.224 180.704L114.992 200.288H111.416L114.296 193.664L108.968 180.704H112.736L116.168 189.992L119.648 180.704H123.224ZM124.171 187.352C124.171 185.976 124.451 184.776 125.011 183.752C125.571 182.712 126.347 181.912 127.339 181.352C128.331 180.776 129.467 180.488 130.747 180.488C132.395 180.488 133.755 180.904 134.827 181.736C135.915 182.552 136.643 183.704 137.011 185.192H133.387C133.195 184.616 132.867 184.168 132.403 183.848C131.955 183.512 131.395 183.344 130.723 183.344C129.763 183.344 129.003 183.696 128.443 184.4C127.883 185.088 127.603 186.072 127.603 187.352C127.603 188.616 127.883 189.6 128.443 190.304C129.003 190.992 129.763 191.336 130.723 191.336C132.083 191.336 132.971 190.728 133.387 189.512H137.011C136.643 190.952 135.915 192.096 134.827 192.944C133.739 193.792 132.379 194.216 130.747 194.216C129.467 194.216 128.331 193.936 127.339 193.376C126.347 192.8 125.571 192 125.011 190.976C124.451 189.936 124.171 188.728 124.171 187.352ZM138.608 187.304C138.608 185.96 138.872 184.768 139.4 183.728C139.944 182.688 140.672 181.888 141.584 181.328C142.512 180.768 143.544 180.488 144.68 180.488C145.672 180.488 146.536 180.688 147.272 181.088C148.024 181.488 148.624 181.992 149.072 182.6V180.704H152.456V194H149.072V192.056C148.64 192.68 148.04 193.2 147.272 193.616C146.52 194.016 145.648 194.216 144.656 194.216C143.536 194.216 142.512 193.928 141.584 193.352C140.672 192.776 139.944 191.968 139.4 190.928C138.872 189.872 138.608 188.664 138.608 187.304ZM149.072 187.352C149.072 186.536 148.912 185.84 148.592 185.264C148.272 184.672 147.84 184.224 147.296 183.92C146.752 183.6 146.168 183.44 145.544 183.44C144.92 183.44 144.344 183.592 143.816 183.896C143.288 184.2 142.856 184.648 142.52 185.24C142.2 185.816 142.04 186.504 142.04 187.304C142.04 188.104 142.2 188.808 142.52 189.416C142.856 190.008 143.288 190.464 143.816 190.784C144.36 191.104 144.936 191.264 145.544 191.264C146.168 191.264 146.752 191.112 147.296 190.808C147.84 190.488 148.272 190.04 148.592 189.464C148.912 188.872 149.072 188.168 149.072 187.352ZM159.098 182.768C159.53 182.064 160.09 181.512 160.778 181.112C161.482 180.712 162.282 180.512 163.178 180.512V184.04H162.29C161.234 184.04 160.434 184.288 159.89 184.784C159.362 185.28 159.098 186.144 159.098 187.376V194H155.738V180.704H159.098V182.768ZM177.801 187.064C177.801 187.544 177.769 187.976 177.705 188.36H167.985C168.065 189.32 168.401 190.072 168.993 190.616C169.585 191.16 170.313 191.432 171.177 191.432C172.425 191.432 173.313 190.896 173.841 189.824H177.465C177.081 191.104 176.345 192.16 175.257 192.992C174.169 193.808 172.833 194.216 171.249 194.216C169.969 194.216 168.817 193.936 167.793 193.376C166.785 192.8 165.993 191.992 165.417 190.952C164.857 189.912 164.577 188.712 164.577 187.352C164.577 185.976 164.857 184.768 165.417 183.728C165.977 182.688 166.761 181.888 167.769 181.328C168.777 180.768 169.937 180.488 171.249 180.488C172.513 180.488 173.641 180.76 174.633 181.304C175.641 181.848 176.417 182.624 176.961 183.632C177.521 184.624 177.801 185.768 177.801 187.064ZM174.321 186.104C174.305 185.24 173.993 184.552 173.385 184.04C172.777 183.512 172.033 183.248 171.153 183.248C170.321 183.248 169.617 183.504 169.041 184.016C168.481 184.512 168.137 185.208 168.009 186.104H174.321Z" fill="#041E5E"/>
<rect x="20.5" y="0.5" width="138" height="138" rx="7.5" fill="white" stroke="#EFEFEF"/>
<g clip-path="url(#clip0_375_1064)">
<path d="M78.5748 105.218L78.5748 105.218C78.4355 104.008 78.5007 101.98 78.6871 99.5787C78.8726 97.1908 79.1745 94.4745 79.4951 91.9111C79.8157 89.3486 80.1544 86.9432 80.4131 85.1781C80.5424 84.2956 80.6517 83.5735 80.7286 83.0721C80.7555 82.8971 80.7784 82.749 80.7968 82.6304L99.8543 78.5952C99.8752 78.7077 99.8994 78.8377 99.9265 78.9842C100.032 79.5551 100.183 80.3755 100.364 81.3733C100.725 83.3691 101.205 86.0739 101.681 88.9109C102.157 91.7485 102.628 94.7153 102.972 97.2358C103.318 99.7727 103.528 101.813 103.497 102.825C103.369 106.938 100.995 109.589 97.7476 111.067C94.4785 112.555 90.3539 112.83 86.8888 112.143L86.7915 112.633L86.8888 112.143C84.3099 111.631 82.2908 110.482 80.8854 109.162C79.4702 107.833 78.7063 106.361 78.5748 105.218Z" fill="#FFC4B0" stroke="black"/>
<path d="M93.3591 88.7828C90.0221 90.7304 84.3509 92.0514 79.3066 92.4938L79.4552 95.4873C88.5619 93.7703 92.5127 90.649 93.3591 88.7828Z" fill="#FFA98C"/>
<path d="M78.4413 104.994C78.4243 104.994 78.4074 104.994 78.3904 104.992C78.1075 104.964 77.9001 104.708 77.9284 104.422L80.1744 81.575L100.357 77.2804L100.444 77.8184C100.474 77.9997 103.387 96.0234 104.078 102.041C104.11 102.327 103.908 102.585 103.625 102.619C103.342 102.653 103.088 102.447 103.054 102.161C102.433 96.7541 100.004 81.5769 99.512 78.5243L81.123 82.4374L78.9505 104.523C78.9241 104.792 78.6997 104.992 78.4394 104.992L78.4413 104.994Z" fill="black"/>
<path d="M104.172 78.4213C104.172 78.4213 87.5274 97.7252 72.25 92.1428C56.9746 86.5584 67.5524 41.9256 75.6125 34.7787C83.6727 27.6337 111.212 38.9035 110.942 53.4148C110.673 67.9261 104.17 78.4213 104.17 78.4213H104.172Z" fill="#FFC4B0"/>
<path d="M78.0699 93.7798C75.9691 93.7798 73.9569 93.4306 72.0408 92.7304C68.1654 91.3148 65.6289 87.5315 64.5012 81.4873C61.5121 65.4459 69.2083 39.6266 75.2072 34.3093C79.7823 30.2532 89.2003 31.8997 96.5023 35.332C103.882 38.8005 111.712 45.375 111.563 53.4263C111.293 67.9433 104.762 78.6465 104.696 78.7533L104.638 78.8316C104.54 78.946 102.183 81.6667 98.4014 84.7937C98.1373 85.0112 97.7489 84.9711 97.532 84.7059C97.3151 84.4388 97.3547 84.0458 97.6187 83.8264C101.083 80.9607 103.374 78.3889 103.674 78.0493C104.112 77.3186 110.073 67.1096 110.326 53.4034C110.463 45.9531 103.005 39.7697 95.9799 36.4652C87.7727 32.6075 79.5654 32.1057 76.02 35.248C70.353 40.2715 62.8491 65.8771 65.7157 81.2546C66.7566 86.8332 69.0253 90.2979 72.4614 91.5552C76.399 92.9937 80.812 92.8373 85.5719 91.0916C85.8925 90.9752 86.247 91.1412 86.362 91.4655C86.479 91.7899 86.313 92.1485 85.9924 92.2649C83.2428 93.2742 80.5951 93.7798 78.0718 93.7798H78.0699Z" fill="black"/>
<path d="M95.3253 40.613C94.3032 41.3551 76.1367 54.8362 69.2892 46.6991C62.4416 38.562 69.0459 30.5547 76.6138 28.8757C89.6979 25.9757 104.23 30.9648 101.034 33.8305C97.8392 36.6961 95.3253 40.613 95.3253 40.613Z" fill="black"/>
<path d="M97.1981 33.9316C97.1981 33.9316 118.58 28.4083 119.926 47.7866C121.273 67.1649 104.349 80.6288 101.837 80.6536C99.3253 80.6784 109.417 74.3576 108.362 66.9341C107.666 62.0384 99.7817 61.3268 98.2164 64.9861C97.2603 67.2183 94.1053 63.6086 94.1053 63.6086C94.1053 63.6086 99.4083 52.2663 93.8544 48.6795C88.3006 45.0927 91.4537 43.2096 91.4537 43.2096L97.2018 33.9316H97.1981Z" fill="black"/>
<path d="M66.7036 63.828C66.3981 65.3333 67.0016 66.7299 68.052 66.9493C69.1024 67.1687 70.2019 66.1251 70.5074 64.6198C70.8129 63.1145 70.2094 61.7179 69.159 61.4985C68.1086 61.2791 67.0091 62.3227 66.7036 63.828Z" fill="black"/>
<path d="M65.9889 58.152C65.7739 58.152 65.5646 58.0376 65.4514 57.8353C65.2836 57.5358 65.3873 57.1542 65.6834 56.9844C68.0313 55.6375 71.3108 56.3701 72.2744 56.7345C72.5932 56.8547 72.7572 57.2153 72.6365 57.5377C72.5177 57.8621 72.1613 58.0242 71.8426 57.904C71.2127 57.6655 68.2462 56.9482 66.2925 58.07C66.1963 58.1253 66.0907 58.152 65.9889 58.152Z" fill="black"/>
<path d="M71.2129 76.5478C70.8074 76.5478 70.4208 76.4906 70.0682 76.3723C69.3025 76.1147 68.7217 75.5824 68.3879 74.8288C67.5638 72.9763 69.2346 70.2823 71.0036 67.4301C71.888 66.0011 72.8046 64.5263 73.2421 63.3472C73.3628 63.0248 73.7211 62.8607 74.0379 62.9828C74.3566 63.1049 74.5188 63.4655 74.3981 63.7879C73.9172 65.0834 73.0101 66.5448 72.0502 68.094C70.6038 70.4273 68.9631 73.0736 69.5156 74.3175C69.7099 74.7544 70.0173 75.0387 70.4586 75.1856C71.2072 75.4374 72.318 75.2485 73.2855 74.7048C73.5834 74.5369 73.9587 74.6456 74.1247 74.9471C74.2906 75.2485 74.1831 75.6282 73.8852 75.7961C73.0064 76.2902 72.0672 76.5478 71.2129 76.5478Z" fill="black"/>
<path d="M90.4674 60.2297C90.2995 60.2297 90.1336 60.161 90.011 60.0275C86.2053 55.8301 79.9066 57.6388 79.8443 57.656C79.5162 57.7514 79.1749 57.5644 79.0768 57.2324C78.9806 56.9024 79.1673 56.5551 79.4936 56.4578C79.7821 56.372 86.5882 54.405 90.92 59.1823C91.1501 59.436 91.1331 59.8329 90.8823 60.0656C90.7635 60.1763 90.6145 60.2297 90.4655 60.2297H90.4674Z" fill="black"/>
<path d="M73.0627 82.8133C71.4352 82.8133 69.6776 82.3421 68.0124 80.9608C67.7484 80.7433 67.7107 80.3484 67.9257 80.0813C68.1425 79.8142 68.531 79.776 68.795 79.9935C73.2721 83.7043 78.5091 79.7817 78.7297 79.6119C79.0013 79.4059 79.3898 79.4593 79.5954 79.7321C79.8009 80.0069 79.7481 80.398 79.4765 80.6078C79.4351 80.6403 76.5516 82.8114 73.0627 82.8114V82.8133Z" fill="black"/>
<path d="M81.9773 64.7628C81.6718 66.2681 82.2753 67.6647 83.3257 67.8841C84.3761 68.1035 85.4756 67.0599 85.7811 65.5546C86.0866 64.0493 85.4831 62.6527 84.4327 62.4333C83.3823 62.2139 82.2828 63.2575 81.9773 64.7628Z" fill="black"/>
<path d="M109.897 64.6561C107.489 58.8867 99.3762 63.0115 99.3762 63.0115L100.842 74.785C103.925 76.0957 112.771 71.5435 109.897 64.6561Z" fill="#FEC6A1"/>
<path d="M102.135 75.6378C101.568 75.6378 101.045 75.5481 100.602 75.3593C100.287 75.2257 100.14 74.8594 100.272 74.5408C100.404 74.2222 100.766 74.0714 101.081 74.2069C102.492 74.806 105.781 73.8311 107.908 71.6771C109.271 70.2958 110.623 67.9987 109.33 64.8984C108.834 63.7117 108.062 62.9352 106.969 62.5288C103.963 61.4051 99.6968 63.5457 99.6553 63.5686C99.3498 63.725 98.9783 63.5991 98.8255 63.29C98.6727 62.981 98.7953 62.607 99.0989 62.4525C99.2932 62.3533 103.891 60.0505 107.395 61.3574C108.805 61.882 109.839 62.9104 110.467 64.4138C111.685 67.3328 111.085 70.2252 108.781 72.5623C106.923 74.4454 104.215 75.6397 102.135 75.6397V75.6378Z" fill="black"/>
<path d="M106.874 70.0191C106.776 70.0191 106.676 69.9962 106.584 69.9447C106.282 69.7825 106.169 69.4028 106.329 69.0995C106.933 67.9548 106.938 66.8406 106.342 66.0431C105.924 65.4821 105.252 65.1731 104.706 65.2933C104.37 65.3639 104.044 65.1521 103.972 64.8144C103.9 64.4767 104.112 64.1447 104.445 64.0722C105.46 63.8528 106.62 64.3393 107.329 65.2914C108.226 66.4952 108.259 68.0978 107.419 69.6909C107.308 69.9008 107.095 70.021 106.874 70.021V70.0191Z" fill="black"/>
<path opacity="0.3" d="M88.7605 65.0605C87.91 69.5707 84.672 72.734 81.5264 72.1273C78.3808 71.5206 76.5213 67.3729 77.3718 62.8626C78.2224 58.3524 81.4604 55.1892 84.606 55.7959C87.7516 56.4026 89.6111 60.5503 88.7605 65.0605Z" fill="white"/>
<path d="M82.2959 72.8255C82.0017 72.8255 81.7056 72.7988 81.4114 72.7416C77.9377 72.07 75.8538 67.5865 76.7666 62.7462C77.6793 57.906 81.2436 54.5099 84.723 55.1834C88.1968 55.855 90.2806 60.3385 89.3679 65.1788C88.5324 69.6089 85.4717 72.8255 82.2959 72.8255ZM83.8197 56.3453C81.2342 56.3453 78.7015 59.1461 77.9792 62.979C77.1947 67.1439 78.8372 70.9711 81.6415 71.5129C84.4496 72.0548 87.367 69.1071 88.1534 64.9441C88.9379 60.7792 87.2953 56.952 84.4911 56.4102C84.2666 56.3663 84.0422 56.3453 83.8197 56.3453Z" fill="black"/>
<path opacity="0.3" d="M71.2127 64.6809C70.3622 69.1911 67.1242 72.3543 63.9785 71.7476C60.8329 71.1409 58.9735 66.9932 59.824 62.483C60.6745 57.9728 63.9125 54.8095 67.0582 55.4162C70.2038 56.0229 72.0632 60.1706 71.2127 64.6809Z" fill="white"/>
<path d="M64.7687 72.4479C64.467 72.4479 64.1634 72.4192 63.8635 72.362C62.1399 72.0281 60.7104 70.7766 59.841 68.8363C59.0037 66.9703 58.783 64.6714 59.2168 62.3647C59.6524 60.0581 60.6934 58.0033 62.1512 56.5801C63.6655 55.0995 65.4495 54.468 67.1732 54.8C70.647 55.4716 72.7308 59.9551 71.8181 64.7954C71.3825 67.102 70.3415 69.1568 68.8837 70.5801C67.6334 71.8011 66.1982 72.446 64.7669 72.446L64.7687 72.4479ZM66.2774 55.9657C65.1629 55.9657 64.0257 56.4885 63.0111 57.4787C61.7363 58.7245 60.8198 60.5427 60.4313 62.5994C60.0428 64.6542 60.2333 66.6861 60.965 68.3192C61.6646 69.8799 62.7754 70.8777 64.0936 71.1314C65.4118 71.3871 66.8074 70.8701 68.0256 69.6814C69.3005 68.4356 70.217 66.6174 70.6036 64.5626C71.3881 60.3977 69.7455 56.5705 66.9413 56.0287C66.7206 55.9867 66.4981 55.9657 66.2755 55.9657H66.2774Z" fill="black"/>
<path d="M77.0477 61.7809C76.8836 61.7809 76.7177 61.7141 76.597 61.5825C74.9148 59.7643 71.9464 61.2811 71.9163 61.2963C71.6145 61.4547 71.2411 61.3326 71.0846 61.0273C70.9281 60.7201 71.0469 60.3443 71.3505 60.1859C71.507 60.1058 75.1863 58.2304 77.4984 60.7297C77.7323 60.9815 77.7191 61.3764 77.4701 61.613C77.3513 61.7256 77.1986 61.7828 77.0477 61.7828V61.7809Z" fill="black"/>
<path d="M89.0286 65.2131C88.7269 65.2131 88.4629 64.988 88.4176 64.677C88.3686 64.3355 88.6024 64.0188 88.94 63.9692L99.8723 62.3761C100.208 62.3265 100.523 62.5631 100.572 62.9046C100.621 63.2461 100.387 63.5628 100.048 63.6124L89.1154 65.2055C89.0852 65.2093 89.055 65.2131 89.0268 65.2131H89.0286Z" fill="black"/>
<path d="M64.5879 28.8948C60.4183 31.9321 60.109 40.5748 61.6535 43.7724C65.2461 51.2131 74.3585 46.5579 74.3585 46.5579L76.0973 33.2199C69.7778 34.895 67.709 26.6206 64.5879 28.8948Z" fill="black"/>
</g>
<defs>
<clipPath id="clip0_375_1064">
<rect width="61" height="86" fill="white" transform="translate(59 28)"/>
</clipPath>
</defs>
</svg>
