<svg width="121" height="120" viewBox="0 0 121 120" fill="none" xmlns="http://www.w3.org/2000/svg">
<ellipse opacity="0.3" cx="60.5" cy="110.804" rx="50" ry="4" fill="#3B4C68"/>
<path d="M21.9832 27.3514C21.9832 23.4212 21.9837 20.5095 22.172 18.2051C22.3597 15.9077 22.7311 14.2666 23.4438 12.8679C24.7285 10.3466 26.7784 8.29663 29.2998 7.01193C30.6985 6.29925 32.3395 5.92787 34.6369 5.74016C36.9414 5.55188 39.853 5.55142 43.7832 5.55142H67.2166C71.1469 5.55142 74.0585 5.55188 76.3629 5.74016C78.6604 5.92787 80.3014 6.29925 81.7001 7.01193C84.2215 8.29663 86.2714 10.3466 87.5561 12.8679C88.2688 14.2666 88.6402 15.9077 88.8279 18.2051C89.0162 20.5095 89.0166 23.4211 89.0166 27.3514V89.3376C89.0166 93.2679 89.0162 96.1795 88.8279 98.4839C88.6402 100.781 88.2688 102.422 87.5561 103.821C86.2714 106.342 84.2215 108.392 81.7001 109.677C80.3014 110.39 78.6604 110.761 76.3629 110.949C74.0585 111.137 71.1469 111.138 67.2166 111.138H43.7832C39.853 111.138 36.9414 111.137 34.6369 110.949C32.3395 110.761 30.6985 110.39 29.2998 109.677C26.7784 108.392 24.7285 106.342 23.4438 103.821C22.7311 102.422 22.3597 100.781 22.172 98.484C21.9837 96.1795 21.9832 93.2679 21.9832 89.3376V27.3514Z" fill="white" stroke="#3B4C68" stroke-width="1.2"/>
<path d="M26.3832 27.3514C26.3832 19.5107 26.3832 15.5903 27.9091 12.5955C29.2514 9.96128 31.3931 7.81955 34.0274 6.47732C37.0221 4.95142 40.9425 4.95142 48.7832 4.95142H72.2166C80.0574 4.95142 83.9777 4.95142 86.9725 6.47732C89.6068 7.81955 91.7485 9.96128 93.0907 12.5955C94.6166 15.5903 94.6166 19.5107 94.6166 27.3514V89.3376C94.6166 97.1784 94.6166 101.099 93.0907 104.094C91.7485 106.728 89.6068 108.87 86.9725 110.212C83.9777 111.738 80.0574 111.738 72.2166 111.738H48.7832C40.9425 111.738 37.0221 111.738 34.0274 110.212C31.3931 108.87 29.2514 106.728 27.9091 104.094C26.3832 101.099 26.3832 97.1784 26.3832 89.3376V27.3514Z" fill="#818AF9" fill-opacity="0.1"/>
<g filter="url(#filter0_d_375_1144)">
<rect x="37.3414" y="83.7474" width="46.3172" height="12" rx="6" fill="white"/>
</g>
<g filter="url(#filter1_d_375_1144)">
<rect x="37.3414" y="67.7622" width="46.3172" height="12" rx="6" fill="white"/>
</g>
<circle cx="60.4999" cy="45.91" r="14" fill="#041E5E"/>
<path d="M60.5009 45.252C61.976 45.252 63.1718 44.0561 63.1718 42.581C63.1718 41.1059 61.976 39.91 60.5009 39.91C59.0257 39.91 57.8299 41.1059 57.8299 42.581C57.8299 44.0561 59.0257 45.252 60.5009 45.252Z" stroke="white" stroke-width="1.5" stroke-linecap="round" stroke-linejoin="round"/>
<path d="M65.6059 51.9101C65.6059 49.7272 63.3199 47.9575 60.4999 47.9575C57.68 47.9575 55.3939 49.7272 55.3939 51.9101" stroke="white" stroke-width="1.5" stroke-linecap="round" stroke-linejoin="round"/>
<path d="M72.2166 9.18142H48.7832C44.7934 9.18142 42.0549 9.1847 39.9325 9.35811C37.8599 9.52745 36.7496 9.83772 35.9478 10.2463C34.1094 11.183 32.6148 12.6776 31.6781 14.5159C31.2695 15.3178 30.9593 16.4281 30.7899 18.5007C30.6165 20.6231 30.6132 23.3615 30.6132 27.3514V89.3376C30.6132 93.3275 30.6165 96.066 30.7899 98.1884C30.9593 100.261 31.2695 101.371 31.6781 102.173C32.6148 104.011 34.1094 105.506 35.9478 106.443C36.7496 106.851 37.8599 107.162 39.9325 107.331C42.0549 107.504 44.7934 107.508 48.7832 107.508H72.2166C76.2065 107.508 78.945 107.504 81.0674 107.331C83.14 107.162 84.2503 106.851 85.0521 106.443C86.8905 105.506 88.3851 104.011 89.3218 102.173C89.7303 101.371 90.0406 100.261 90.2099 98.1884C90.3834 96.066 90.3866 93.3275 90.3866 89.3376V27.3514C90.3866 23.3615 90.3834 20.6231 90.2099 18.5007C90.0406 16.4281 89.7303 15.3178 89.3218 14.5159C88.3851 12.6776 86.8905 11.183 85.0521 10.2463C84.2503 9.83772 83.14 9.52745 81.0674 9.35811C78.945 9.1847 76.2065 9.18142 72.2166 9.18142ZM26.9832 27.3514C26.9832 23.4212 26.9837 20.5095 27.172 18.2051C27.3597 15.9077 27.7311 14.2666 28.4438 12.8679C29.7285 10.3466 31.7784 8.29663 34.2998 7.01193C35.6985 6.29925 37.3395 5.92787 39.6369 5.74016C41.9414 5.55188 44.853 5.55142 48.7832 5.55142H72.2166C76.1469 5.55142 79.0585 5.55188 81.3629 5.74016C83.6604 5.92787 85.3014 6.29925 86.7001 7.01193C89.2215 8.29663 91.2714 10.3466 92.5561 12.8679C93.2688 14.2666 93.6402 15.9077 93.8279 18.2051C94.0162 20.5095 94.0166 23.4211 94.0166 27.3514V89.3376C94.0166 93.2679 94.0162 96.1795 93.8279 98.4839C93.6402 100.781 93.2688 102.422 92.5561 103.821C91.2714 106.342 89.2215 108.392 86.7001 109.677C85.3014 110.39 83.6604 110.761 81.3629 110.949C79.0585 111.137 76.1469 111.138 72.2166 111.138H48.7832C44.853 111.138 41.9414 111.137 39.6369 110.949C37.3395 110.761 35.6985 110.39 34.2998 109.677C31.7784 108.392 29.7285 106.342 28.4438 103.821C27.7311 102.422 27.3597 100.781 27.172 98.484C26.9837 96.1795 26.9832 93.2679 26.9832 89.3376V27.3514Z" fill="white" stroke="#3B4C68" stroke-width="1.2"/>
<path fill-rule="evenodd" clip-rule="evenodd" d="M48.4999 17.425C48.4999 15.2159 50.2908 13.425 52.4999 13.425L68.4999 13.4251C70.7091 13.4251 72.4999 15.2159 72.4999 17.4251C72.4999 19.6342 70.7091 21.4251 68.4999 21.4251L52.4999 21.425C50.2908 21.425 48.4999 19.6342 48.4999 17.425Z" fill="#041E5E" fill-opacity="0.26" stroke="#3B4C68" stroke-width="1.2" stroke-linecap="round"/>
<path opacity="0.2" d="M94.6166 71.2494V90.4121C94.6166 92.4342 94.6166 94.1955 94.5905 95.7474H61.749C54.9841 95.7474 49.5 90.2634 49.5 83.4984C49.5 76.7335 54.9841 71.2494 61.749 71.2494H94.6166Z" fill="#818AF9"/>
<rect x="49.5" y="66.2494" width="64" height="24.4981" rx="12.249" fill="#818AF9"/>
<path d="M66.038 74.3622V82.8823" stroke="white" stroke-width="2.93849" stroke-linecap="round" stroke-linejoin="round"/>
<path d="M69.7274 76.4922L62.3488 80.7522" stroke="white" stroke-width="2.93849" stroke-linecap="round" stroke-linejoin="round"/>
<path d="M62.3487 76.4922L69.7273 80.7522" stroke="white" stroke-width="2.93849" stroke-linecap="round" stroke-linejoin="round"/>
<path d="M81.1305 74.3622V82.8823" stroke="white" stroke-width="2.93849" stroke-linecap="round" stroke-linejoin="round"/>
<path d="M84.8198 76.4922L77.4412 80.7522" stroke="white" stroke-width="2.93849" stroke-linecap="round" stroke-linejoin="round"/>
<path d="M77.4412 76.4922L84.8198 80.7522" stroke="white" stroke-width="2.93849" stroke-linecap="round" stroke-linejoin="round"/>
<path d="M96.2224 74.3622V82.8823" stroke="white" stroke-width="2.93849" stroke-linecap="round" stroke-linejoin="round"/>
<path d="M99.9118 76.4922L92.5332 80.7522" stroke="white" stroke-width="2.93849" stroke-linecap="round" stroke-linejoin="round"/>
<path d="M92.5331 76.4922L99.9117 80.7522" stroke="white" stroke-width="2.93849" stroke-linecap="round" stroke-linejoin="round"/>
<defs>
<filter id="filter0_d_375_1144" x="31.3414" y="79.7474" width="58.3172" height="24" filterUnits="userSpaceOnUse" color-interpolation-filters="sRGB">
<feFlood flood-opacity="0" result="BackgroundImageFix"/>
<feColorMatrix in="SourceAlpha" type="matrix" values="0 0 0 0 0 0 0 0 0 0 0 0 0 0 0 0 0 0 127 0" result="hardAlpha"/>
<feOffset dy="2"/>
<feGaussianBlur stdDeviation="3"/>
<feComposite in2="hardAlpha" operator="out"/>
<feColorMatrix type="matrix" values="0 0 0 0 0.00392157 0 0 0 0 0.196078 0 0 0 0 0.113725 0 0 0 0.1 0"/>
<feBlend mode="normal" in2="BackgroundImageFix" result="effect1_dropShadow_375_1144"/>
<feBlend mode="normal" in="SourceGraphic" in2="effect1_dropShadow_375_1144" result="shape"/>
</filter>
<filter id="filter1_d_375_1144" x="31.3414" y="63.7622" width="58.3172" height="24" filterUnits="userSpaceOnUse" color-interpolation-filters="sRGB">
<feFlood flood-opacity="0" result="BackgroundImageFix"/>
<feColorMatrix in="SourceAlpha" type="matrix" values="0 0 0 0 0 0 0 0 0 0 0 0 0 0 0 0 0 0 127 0" result="hardAlpha"/>
<feOffset dy="2"/>
<feGaussianBlur stdDeviation="3"/>
<feComposite in2="hardAlpha" operator="out"/>
<feColorMatrix type="matrix" values="0 0 0 0 0.00392157 0 0 0 0 0.196078 0 0 0 0 0.113725 0 0 0 0.1 0"/>
<feBlend mode="normal" in2="BackgroundImageFix" result="effect1_dropShadow_375_1144"/>
<feBlend mode="normal" in="SourceGraphic" in2="effect1_dropShadow_375_1144" result="shape"/>
</filter>
</defs>
</svg>
