<svg width="9" height="6" viewBox="0 0 9 6" fill="none" xmlns="http://www.w3.org/2000/svg">
<path d="M7.77359 1.93782L5.35265 4.28894C4.84504 4.78119 4.33933 5.27343 3.83457 5.76475C3.51172 6.07842 2.9622 6.07842 2.63744 5.76475C2.53839 5.6676 2.43934 5.57137 2.3422 5.47514C1.64125 4.79321 0.942212 4.11314 0.242217 3.43029C-0.0920664 3.10644 -0.0692094 2.59662 0.242217 2.26815C0.550786 1.9406 1.12602 1.96373 1.43935 2.26815C1.53935 2.36438 1.6384 2.4606 1.73554 2.55683C2.23649 3.04352 2.73744 3.53299 3.23648 4.01969C4.02981 3.24894 4.82123 2.48096 5.61361 1.71021L7.13169 0.235324C7.46597 -0.0894464 7.99073 -0.0672399 8.32882 0.235324C8.66501 0.537888 8.6412 1.0949 8.32787 1.39932C8.14406 1.57789 7.9574 1.75925 7.77359 1.93782Z" fill="white"/>
</svg>
