<svg width="139" height="204" viewBox="0 0 139 204" fill="none" xmlns="http://www.w3.org/2000/svg">
<path d="M47.3039 177.248V187.616C47.3039 188.752 47.5999 189.624 48.1919 190.232C48.7839 190.824 49.6159 191.12 50.6879 191.12C51.7759 191.12 52.6159 190.824 53.2079 190.232C53.7999 189.624 54.0959 188.752 54.0959 187.616V177.248H57.4799V187.592C57.4799 189.016 57.1679 190.224 56.5439 191.216C55.9359 192.192 55.1119 192.928 54.0719 193.424C53.0479 193.92 51.9039 194.168 50.6399 194.168C49.3919 194.168 48.2559 193.92 47.2319 193.424C46.2239 192.928 45.4239 192.192 44.8319 191.216C44.2399 190.224 43.9439 189.016 43.9439 187.592V177.248H47.3039ZM65.8143 194.216C64.7263 194.216 63.7503 194.024 62.8863 193.64C62.0223 193.24 61.3343 192.704 60.8223 192.032C60.3263 191.36 60.0543 190.616 60.0063 189.8H63.3903C63.4543 190.312 63.7023 190.736 64.1343 191.072C64.5823 191.408 65.1343 191.576 65.7903 191.576C66.4303 191.576 66.9263 191.448 67.2783 191.192C67.6463 190.936 67.8303 190.608 67.8303 190.208C67.8303 189.776 67.6063 189.456 67.1583 189.248C66.7263 189.024 66.0303 188.784 65.0703 188.528C64.0783 188.288 63.2623 188.04 62.6223 187.784C61.9983 187.528 61.4543 187.136 60.9903 186.608C60.5423 186.08 60.3183 185.368 60.3183 184.472C60.3183 183.736 60.5263 183.064 60.9423 182.456C61.3743 181.848 61.9823 181.368 62.7663 181.016C63.5663 180.664 64.5023 180.488 65.5743 180.488C67.1583 180.488 68.4223 180.888 69.3663 181.688C70.3103 182.472 70.8303 183.536 70.9263 184.88H67.7103C67.6623 184.352 67.4383 183.936 67.0383 183.632C66.6543 183.312 66.1343 183.152 65.4783 183.152C64.8703 183.152 64.3983 183.264 64.0623 183.488C63.7423 183.712 63.5823 184.024 63.5823 184.424C63.5823 184.872 63.8063 185.216 64.2543 185.456C64.7023 185.68 65.3983 185.912 66.3423 186.152C67.3023 186.392 68.0943 186.64 68.7183 186.896C69.3423 187.152 69.8783 187.552 70.3263 188.096C70.7903 188.624 71.0303 189.328 71.0463 190.208C71.0463 190.976 70.8303 191.664 70.3983 192.272C69.9823 192.88 69.3743 193.36 68.5743 193.712C67.7903 194.048 66.8703 194.216 65.8143 194.216ZM86.1644 187.064C86.1644 187.544 86.1324 187.976 86.0684 188.36H76.3484C76.4284 189.32 76.7644 190.072 77.3564 190.616C77.9484 191.16 78.6764 191.432 79.5404 191.432C80.7884 191.432 81.6764 190.896 82.2044 189.824H85.8284C85.4444 191.104 84.7084 192.16 83.6204 192.992C82.5324 193.808 81.1964 194.216 79.6124 194.216C78.3324 194.216 77.1804 193.936 76.1564 193.376C75.1484 192.8 74.3564 191.992 73.7804 190.952C73.2204 189.912 72.9404 188.712 72.9404 187.352C72.9404 185.976 73.2204 184.768 73.7804 183.728C74.3404 182.688 75.1244 181.888 76.1324 181.328C77.1404 180.768 78.3004 180.488 79.6124 180.488C80.8764 180.488 82.0044 180.76 82.9964 181.304C84.0044 181.848 84.7804 182.624 85.3244 183.632C85.8844 184.624 86.1644 185.768 86.1644 187.064ZM82.6844 186.104C82.6684 185.24 82.3564 184.552 81.7484 184.04C81.1404 183.512 80.3964 183.248 79.5164 183.248C78.6844 183.248 77.9804 183.504 77.4044 184.016C76.8444 184.512 76.5004 185.208 76.3724 186.104H82.6844ZM91.9769 182.768C92.4089 182.064 92.9689 181.512 93.6569 181.112C94.3609 180.712 95.1609 180.512 96.0569 180.512V184.04H95.1689C94.1129 184.04 93.3129 184.288 92.7689 184.784C92.2409 185.28 91.9769 186.144 91.9769 187.376V194H88.6169V180.704H91.9769V182.768Z" fill="#041E5E"/>
<rect x="0.5" y="0.5" width="138" height="138" rx="7.5" fill="white" stroke="#EFEFEF"/>
<g clip-path="url(#clip0_375_1095)">
<path d="M85.3338 77.4262C96.721 69.6078 99.5626 54.113 91.6807 42.8176C83.7987 31.5221 68.178 28.7035 56.7908 36.5219C45.4036 44.3403 42.5621 59.8351 50.444 71.1305C58.3259 82.4259 73.9466 85.2446 85.3338 77.4262Z" fill="black"/>
<path d="M54.7027 45.7407C53.7692 44.4976 52.4777 43.521 50.9944 43.0263C47.593 41.8847 43.1942 43.3687 41.7237 46.7554C40.9948 48.4297 40.6879 50.3323 41.0715 52.1081C41.4551 53.8839 42.5932 55.5582 44.2427 56.37C47.0943 57.7906 51.3652 56.9662 53.8076 55.0889C54.8561 54.2771 55.7129 53.1863 56.0709 51.9306C56.2372 51.3598 56.2883 50.7509 56.2755 50.1548C56.2372 48.5693 55.6489 47.0218 54.6899 45.7407H54.7027Z" fill="black"/>
<path d="M89.9849 105.636L80.8223 102.016L80.5181 101.896L80.5063 101.569L79.9821 86.944L79.9734 86.7032L80.1564 86.5464C82.2121 84.7848 83.41 82.3448 83.6797 79.609L83.6797 79.6088C83.8204 78.188 83.9738 76.6468 84.0921 75.4607L84.2372 74.0075L84.2787 73.5922L84.2897 73.4818L84.2926 73.4534L84.2933 73.4462L84.2935 73.4444L84.2935 73.444L84.2935 73.4438L84.3821 72.5585L85.0923 73.0945C87.2853 74.7497 90.6608 75.0224 93.3192 74.1596C94.6083 73.7412 95.8237 72.8755 96.6676 71.7926C97.512 70.7088 97.9547 69.4489 97.7863 68.2349L97.7816 68.2008V68.1884C97.4191 65.6541 95.2927 63.3971 91.6601 63.1346L91.6599 63.1346C88.8923 62.9335 86.0606 64.4667 84.0718 66.4383C83.6803 66.8393 83.2978 67.1695 82.9366 67.3543C82.5705 67.5416 82.0903 67.6374 81.6831 67.3005C81.3449 67.0207 81.1971 66.5371 81.1234 66.0191C81.0455 65.4713 81.0336 64.7457 81.0819 63.8311C81.275 58.5886 83.5428 54.8186 85.6657 51.4086C79.9085 42.9347 73.5093 39.3836 67.4823 38.4723C61.4158 37.5551 55.6495 39.3008 51.1896 41.546C51.1614 41.582 51.1242 41.63 51.079 41.6895C50.9641 41.8406 50.7977 42.0659 50.5946 42.3585C50.1882 42.9438 49.6359 43.7971 49.057 44.8631C47.8973 46.9984 46.6405 49.9688 46.2223 53.3366L46.2222 53.3372C45.747 57.1292 45.7261 59.2827 45.7002 61.9572C45.6943 62.5689 45.6881 63.2079 45.6762 63.9L89.9849 105.636ZM89.9849 105.636C89.4449 105.955 88.6879 106.274 87.7078 106.58C86.2423 107.036 84.3458 107.442 82.0867 107.784C77.5703 108.467 71.65 108.885 64.9265 108.949C58.2136 109.012 53.6361 108.526 50.7463 108.029C49.3015 107.781 48.2787 107.529 47.6219 107.342C47.5971 107.334 47.5728 107.327 47.5491 107.321M89.9849 105.636L47.5491 107.321M47.5491 107.321L55.4946 101.173L55.6675 101.039L55.6867 100.821L56.4284 92.4243L56.4725 91.925L55.9731 91.8821C55.1774 91.8138 53.2299 91.5954 51.1559 91.0096C49.0639 90.4187 46.9334 89.4783 45.6837 88.0212L45.6829 88.0203C44.4231 86.5585 43.951 84.9277 43.9003 82.8786C43.8549 81.0454 44.1459 78.9216 44.5027 76.3187C44.5504 75.9704 44.5993 75.6135 44.6488 75.2475L44.6488 75.2473C45.0969 71.9202 45.6245 66.9878 45.6762 63.9003L47.5491 107.321Z" fill="#FFC4B0" stroke="black"/>
<path d="M75.0685 90C70.6697 92.0295 63.56 92.6764 57.371 92.2197L57.0001 96.4689C68.3424 95.9996 73.7002 92.448 75.0685 90Z" fill="#FFA98C"/>
<path d="M74.3439 61.431C73.9603 60.4543 72.4642 59.3761 70.7635 59.1478C69.0756 58.9322 66.2879 59.6298 66.0194 61.1646C66.5309 63.5746 71.8887 64.5513 74.3439 61.4183V61.431Z" fill="white"/>
<path d="M67.2087 62.1539C67.669 63.2067 68.9349 63.676 70.0474 63.2067C71.1599 62.7374 71.697 61.507 71.2366 60.4542C70.7763 59.4015 69.5104 58.9321 68.3979 59.4015C67.2854 59.8708 66.7483 61.1011 67.2087 62.1539Z" fill="black"/>
<path d="M71.39 60.4036L69.2162 61.3041L71.633 61.5705L71.39 60.4036Z" fill="white"/>
<path d="M65.7765 60.708C66.6204 59.7947 68.3979 59.2873 70.2009 59.3635C71.9016 59.4396 73.6534 60.467 74.3567 61.4183" stroke="black" stroke-width="1.5" stroke-linecap="round" stroke-linejoin="round"/>
<path d="M77.6558 55.2664C74.8682 52.2476 71.0704 51.2202 67.132 52.2476" stroke="black" stroke-width="1.5" stroke-linecap="round" stroke-linejoin="round"/>
<path d="M48.3219 52.1081C50.5213 50.3958 53.667 49.1274 57.6182 50.1167" stroke="black" stroke-width="1.5" stroke-linecap="round" stroke-linejoin="round"/>
<path d="M47.5675 58.8306C48.1685 57.9681 49.882 57.2578 51.5827 57.4354C53.2834 57.613 55.828 58.9321 55.7257 60.4923C53.8716 62.6105 48.8207 62.3695 47.5675 58.8306Z" fill="white"/>
<path d="M49.3705 60.8602C50.0993 61.7481 51.4548 61.8749 52.401 61.1265C53.3473 60.3782 53.5263 59.059 52.8102 58.1584C52.0941 57.2579 50.7259 57.1437 49.7796 57.8921C48.8334 58.6404 48.6544 59.9596 49.3705 60.8602Z" fill="black"/>
<path d="M52.951 58.298L51.1096 59.7313L53.5008 59.3634L52.951 58.298Z" fill="white"/>
<path d="M56.0838 60.0992C55.47 59.021 53.8588 58.1204 52.0942 57.778C50.4191 57.4609 48.4754 58.0697 47.5803 58.8307" stroke="black" stroke-width="1.5" stroke-linecap="round" stroke-linejoin="round"/>
<path d="M61.9276 55.2665C59.2167 59.4649 57.6694 62.5726 56.7359 65.1728C56.0454 67.1135 55.3166 70.145 59.9711 70.7411" stroke="black" stroke-width="1.5" stroke-linecap="round" stroke-linejoin="round"/>
<path d="M94.5349 69.0161C93.8955 68.458 92.2204 67.8999 90.443 68.1663C88.6656 68.4327 87.0799 69.6123 86.4022 71.1978" stroke="black" stroke-width="1.5" stroke-linecap="round" stroke-linejoin="round"/>
<path d="M91.3765 70.5382C90.9033 70.1323 89.2026 69.0288 87.3357 69.7772" stroke="black" stroke-width="1.5" stroke-linecap="round" stroke-linejoin="round"/>
<path d="M103 49.7109C103.038 48.1634 102.553 46.6413 101.76 45.3095C101.197 44.3708 100.481 43.4956 99.5475 42.9375C98.6013 42.3668 97.4377 42.1258 96.3891 42.4809C97.9875 41.5169 99.3429 40.0582 99.0488 38.1049C97.4888 39.1957 95.5196 40.0329 93.6782 39.4748C92.8343 39.2084 92.0926 38.663 91.4404 38.0795C90.3791 37.1282 89.484 36.0247 88.5505 34.9846C88.5505 34.9212 88.5761 34.8324 88.5505 34.7689C88.2053 33.0058 87.4381 31.3569 86.2616 29.987C84.1645 27.5009 81.0956 26.0042 77.7965 26.0803C75.4564 26.1437 73.1419 27.0062 71.2878 28.4396C71.2494 28.3888 71.2111 28.3381 71.1599 28.2873C70.5717 27.6024 69.9324 26.9809 69.2035 26.4355C66.7228 24.5455 63.5643 23.5562 60.4698 24.2411C58.117 24.7738 55.9304 26.2452 54.7539 28.3508C53.731 27.4629 52.4395 26.8921 51.084 26.7652C47.9256 26.4608 45.0229 28.541 44.1789 31.5472C43.693 33.2595 43.936 35.0987 44.1405 36.8238C44.2045 37.2677 44.2556 37.7117 44.3068 38.1556C44.3324 38.3712 44.3451 38.5996 44.3579 38.8152C44.3579 38.8659 44.3579 38.9167 44.3579 38.9801V39.145C44.3579 39.2845 44.3324 39.3987 44.3068 39.5128C43.0408 40.4388 41.1739 40.4768 39.908 39.5509C39.7929 42.4429 41.6087 43.4069 42.4526 43.7113C39.8824 45.3095 38.5014 48.5947 39.1791 51.5374C39.9591 49.825 41.5703 48.5186 43.4245 48.0873C42.8235 50.2309 44.1278 51.4867 44.4858 51.8926C44.8566 52.3238 45.3042 52.679 45.8029 52.9707C46.8387 53.5922 48.0662 53.9093 49.2426 53.8966C51.6211 53.8459 54.2552 52.6409 55.6746 50.7256C56.7871 49.2035 57.3753 47.377 57.7461 45.5251C57.9635 44.3708 58.1298 43.1785 58.7052 42.1638C60.2524 39.4875 62.8866 40.6037 64.3188 42.6585C64.5234 42.9629 64.7407 43.28 65.0604 43.4703C65.8149 43.8762 66.7228 43.3307 67.3749 42.7726C68.6025 41.7452 70.2648 41.352 71.5691 42.5824C72.3491 43.3307 72.6049 44.485 72.5665 45.5632C72.5665 45.7534 72.541 45.931 72.5282 46.1213C72.4387 47.0092 72.2468 47.897 72.1829 48.7849C72.055 50.6241 72.2085 52.717 73.4488 54.0869C77.106 58.1078 80.533 57.6892 82.5278 57.7526C82.1186 58.8562 81.9779 59.8201 82.0291 60.6446C82.1825 63.3971 84.318 64.6909 84.855 65.1094C84.855 65.1094 84.8934 65.0841 84.9062 65.0841C84.9573 65.0587 84.9829 65.0206 85.0341 64.9953C86.9394 63.5366 89.3306 62.4965 91.7346 62.6614C93.9723 62.8263 95.6986 63.7142 96.8239 64.9826C98.3583 63.3717 99.1639 61.0378 98.7675 58.8688C99.6371 60.1119 99.6115 61.9003 98.7292 63.118C100.66 62.7121 102.31 61.1774 102.834 59.2874C103.358 57.3975 102.744 55.2412 101.287 53.9093C102.399 52.8312 103 51.2837 103.026 49.7362L103 49.7109ZM74.2416 28.4015C76.863 27.2599 79.7913 27.298 82.2976 28.6298C83.9727 29.5431 85.4049 31.0018 86.2616 32.7268C84.8039 31.5852 83.0648 30.7608 81.2363 30.951C81.7094 30.1139 81.1212 28.9723 80.2389 28.5283C79.3693 28.0844 77.5408 27.8941 76.5561 27.9956C75.7122 28.0717 74.881 28.2239 74.101 28.4522C74.1521 28.4269 74.1905 28.4015 74.2416 28.3888V28.4015ZM58.0147 26.9555C60.0478 25.5095 62.5925 25.167 64.9965 25.89C66.2496 26.2706 67.4389 26.9428 68.449 27.7546C68.9861 28.1859 69.4848 28.6552 69.9324 29.1752C69.9963 29.2513 70.073 29.3528 70.137 29.4416C70.0474 29.5431 69.9451 29.6572 69.8428 29.7587C66.8123 26.0676 61.0325 25.4461 56.9533 27.8561C57.273 27.5263 57.6183 27.2092 58.0019 26.9428L58.0147 26.9555ZM45.7517 37.3819C45.5599 35.7964 45.2658 34.1601 45.5088 32.5619C45.7134 31.2301 46.3655 30.0631 47.4141 29.264C48.4243 28.4903 49.6774 28.0844 50.9433 28.2366C51.5316 28.3 52.107 28.4776 52.6313 28.7313C50.0227 28.8074 47.5292 30.9383 46.7108 33.5005C46.3144 34.7563 46.1865 36.1515 45.7517 37.3692V37.3819Z" fill="black"/>
<path d="M56.5313 77.4258C60.4953 79.0493 65.444 78.2249 68.807 75.65C69.2162 75.3329 69.1395 74.6353 68.807 74.3055C68.3978 73.8996 67.8608 73.9884 67.4516 74.3055C64.6128 76.4871 60.3291 76.9311 57.0428 75.5992C56.5697 75.409 55.9942 75.8149 55.8664 76.2588C55.7129 76.8042 56.0582 77.2355 56.5313 77.4258Z" fill="black"/>
</g>
<defs>
<clipPath id="clip0_375_1095">
<rect width="64" height="86" fill="white" transform="translate(39 24)"/>
</clipPath>
</defs>
</svg>
